<?xml version="1.0" encoding="utf-8"?>
<!-- Generator: Adobe Illustrator 24.2.1, SVG Export Plug-In . SVG Version: 6.00 Build 0)  -->
<svg version="1.1" id="レイヤー_1" xmlns="http://www.w3.org/2000/svg" xmlns:xlink="http://www.w3.org/1999/xlink" x="0px"
	 y="0px" viewBox="0 0 312 312" style="enable-background:new 0 0 312 312;" xml:space="preserve" width="312" height="312">
<style type="text/css">
	.st0{fill:#FFFFFF;}
</style>
<g>
	<g>
		
			<ellipse transform="matrix(0.7071 -0.7071 0.7071 0.7071 -64.6172 155.9999)" class="st0" cx="156" cy="156" rx="150.4" ry="150.4"/>
		<path d="M156,311.4C70.3,311.4,0.6,241.7,0.6,156C0.6,70.3,70.3,0.6,156,0.6S311.4,70.3,311.4,156
			C311.4,241.7,241.7,311.4,156,311.4z M156,10.6C75.8,10.6,10.6,75.8,10.6,156S75.8,301.4,156,301.4S301.4,236.2,301.4,156
			S236.2,10.6,156,10.6z"/>
	</g>
	<g>
		<path d="M158,112.7l-38.2-36.9c-4.5-4.3-11.1-5.6-16.9-3.1c-5.8,2.4-9.5,8.1-9.5,14.3v94.2c0,6.3,2.6,12.4,7.1,16.8l46.6,45.1
			c6,5.8,15.6,5.8,21.7,0l46.6-45.1c4.6-4.4,7.1-10.5,7.1-16.8V87c0-6.3-3.7-11.9-9.5-14.3c-5.8-2.4-12.4-1.2-16.9,3.1L158,112.7z
			 M200.6,178.5c0,2.1-0.9,4.1-2.4,5.6L158,223v-79.7l7.6-7.4l28.3-27.4c1.1-1.1,2.8-1.4,4.2-0.8c1.4,0.6,2.4,2,2.4,3.6V178.5z"/>
	</g>
</g>
</svg>
