<?xml version="1.0" encoding="utf-8"?>
<!-- Generator: Adobe Illustrator 24.2.1, SVG Export Plug-In . SVG Version: 6.00 Build 0)  -->
<svg version="1.1" id="レイヤー_1" xmlns="http://www.w3.org/2000/svg" xmlns:xlink="http://www.w3.org/1999/xlink" x="0px"
	 y="0px" viewBox="0 0 312 312" style="enable-background:new 0 0 312 312;" xml:space="preserve" width="312" height="312">
<style type="text/css">
	.st0{fill:#FFFFFF;}
</style>
<g>
	<g>
		<ellipse transform="matrix(0.7071 -0.7071 0.7071 0.7071 -64.6171 156)" class="st0" cx="156" cy="156" rx="150.4" ry="150.4"/>
		<path d="M156,311.4C70.3,311.4,0.6,241.7,0.6,156C0.6,70.3,70.3,0.6,156,0.6S311.4,70.3,311.4,156
			C311.4,241.7,241.7,311.4,156,311.4z M156,10.6C75.8,10.6,10.6,75.8,10.6,156S75.8,301.4,156,301.4S301.4,236.2,301.4,156
			S236.2,10.6,156,10.6z"/>
	</g>
	<g>
		<path d="M191.9,130.2c-5.8-1-19.3-1.1-30.6,1.4c-0.7-0.5-1.5-1-2.2-1.4c-2.2-1.3-4.3-2.5-6.5-3.3c-2.1-0.8-4.1-1.4-6.3-1.5v0
			c-3.2-0.3-6.4-0.4-9.2-0.4c-4.4,0-8.1,0.2-10.9,0.7h0c-0.4,0.1-0.8,0.1-1.3,0.1c-2.4,0-5.7-1.1-8.7-2.8c-2-1.1-4.5-0.5-5.9,1.4
			l-33,45.5c-1.1,1.5-1.2,3.6-0.1,5.2c0.8,1.3,1.5,2.6,2,3.9c0.7,1.8,1.6,3.5,2.7,5.1c1.1,1.6,2.4,3.2,3.7,4.7l0.5,0.5
			c0,0,2.4,2,6.2,5.1c-1,1.4-1.5,3.1-1.6,4.9c0,2.3,0.9,4.5,2.5,6.2c1.7,1.7,3.9,2.6,6.3,2.6c1.7,0,3.3-0.5,4.6-1.4
			c-0.9,1.4-1.4,3-1.5,4.7c0,2.3,0.9,4.5,2.5,6.2c1.7,1.7,3.9,2.6,6.3,2.6c1.9,0,3.6-0.6,5.1-1.7c-2.7,3.4-2.6,8.4,0.6,11.6
			c1.7,1.7,3.9,2.6,6.3,2.6h0c2.3,0,4.5-0.9,6.1-2.5l1.6-1.6c-0.7,1.2-1.1,2.6-1.1,4.1c0,2.3,0.9,4.5,2.5,6.2
			c1.7,1.7,3.9,2.6,6.3,2.6c2.3,0,4.5-0.9,6.1-2.5l1-1c0.5,0.4,0.9,0.7,1.3,1c0.3,0.2,0.6,0.4,0.8,0.6l0.3,0.2l0.5,0.3
			c1.9,1,3.6,1.5,5,1.8c0.7,0.1,1.3,0.2,1.7,0.3l0.5,0.1l0.2,0l0.1,0l0,0l0,0l0.1,0c0.1,0,0,0,0.3,0l0.3,0c3.1-0.2,6-1.3,8.4-3.1
			c1-0.7,1.8-1.6,2.5-2.6c1.5,0.5,3,0.8,4.7,0.8c6.6,0,12.2-4.2,14.3-10.1c0.2,0,0.5,0,0.7-0.1c0.8,0.2,1.7,0.3,2.6,0.3
			c6.5,0,12.1-4.1,14.3-9.9c0,0,0,0,0,0l0.5,0c8.5,0,15.3-6.9,15.3-15.3c0-2.3-0.3-4.9-1.2-7.6c5.8-5.1,14.3-13.1,15.9-17.4
			c0.7-2.1,4.9-7,6.1-8.7l-32.8-45.2C204.5,125.9,196.4,130.9,191.9,130.2z M211.5,202.5c0,3.4-2.7,6.1-6.1,6.1
			c-0.8,0-1.6-0.2-2.3-0.5c-0.1,0-0.1,0-0.2-0.1l-5.7-6.9c-1.4-1.7-4-1.8-5.6-0.4c-1.7,1.4-1.9,4-0.4,5.6l5.5,6.7
			c-0.4,3-2.9,5.4-6.1,5.4c-1.5,0-2.8-0.5-3.9-1.4l-5.4-6.6c-1.4-1.7-4-1.8-5.6-0.4c-1.7,1.4-1.8,4-0.4,5.6l3.8,4.7
			c0,0.3,0,0.6,0,0.9c0.1,0.4,0.1,0.7,0.1,1c0,3.4-2.7,6.1-6.1,6.1c-0.9,0-1.7-0.2-2.4-0.5l-6.6-7c-1.6-1.5-4.1-1.4-5.6,0.2
			c-1.5,1.6-1.4,4.1,0.2,5.6l3.1,3.7c-0.3,0.7-0.7,1.3-1.4,1.8c-0.8,0.6-1.9,1-3.2,1.2c-0.4-0.1-0.9-0.1-1.5-0.3
			c-0.7-0.2-1.5-0.4-1.9-0.7c-0.1-0.1-0.5-0.4-1-0.8c-0.3-0.2-0.6-0.5-1-0.8c0.7-2.8-0.1-5.9-2.2-8.2c-1.7-1.7-3.9-2.6-6.3-2.6
			c-1.3,0-2.6,0.3-3.8,0.9l0,0l0,0c1.7-1.6,2.6-3.8,2.6-6.2c0-2.3-0.9-4.5-2.5-6.2c-1.7-1.7-3.9-2.6-6.3-2.6c-1.9,0-3.6,0.6-5.1,1.7
			c1.2-1.5,1.9-3.4,1.9-5.3c0-2.3-0.9-4.5-2.5-6.2c-1.7-1.7-3.9-2.6-6.3-2.6c-2.3,0-4.5,0.9-6.1,2.5l-1.5,1.5
			c1.8-3.3,1.4-7.5-1.4-10.4c-1.7-1.7-3.9-2.6-6.3-2.6c-2.3,0-4.5,0.9-6.1,2.5l-1,1c-0.7-0.6-1.4-1.1-2-1.6
			c-2.3-1.9-3.8-3.1-4.4-3.7c-1.1-1.2-2-2.4-2.8-3.5c-0.8-1.2-1.4-2.3-1.7-3c-0.4-1.1-0.8-2.1-1.3-3.1l29-40c2.9,1.2,6,2.1,9.4,2.1
			c0.9,0,1.8-0.1,2.8-0.2h0c1.9-0.3,5.4-0.6,9.4-0.6c2.6,0,5.5,0.1,8.5,0.3l0.2,0c0.7,0,1.9,0.3,3.4,0.9l0.3,0.2
			c-12.4,5.6-30,16.4-35.7,18.3c-6.6,2.2-7.1,11,7.7,12.6c14.8,1.7,28-7.7,31.3-9.3c2.4-1.2,17.4,0.3,25.7,1.2
			c3.7,3.6,6.9,7,9.2,9.5l18.3,22.4l0.1,0.1c2.3,2.7,3.6,4.9,4.3,6.8C211.3,199,211.5,200.6,211.5,202.5z"/>
		<path d="M278.2,155.7L234,94.8c-1.1-1.5-3.1-1.8-4.6-0.7l-19.6,14.2c-1.5,1.1-1.8,3.1-0.7,4.6l44.2,60.9c1.1,1.5,3.1,1.8,4.6,0.7
			l19.6-14.2C278.9,159.3,279.2,157.2,278.2,155.7z M263.1,161.2c-2.5,1.8-5.9,1.2-7.7-1.2c-1.8-2.5-1.2-5.9,1.2-7.7
			c2.5-1.8,5.9-1.2,7.7,1.2C266.1,156,265.6,159.4,263.1,161.2z"/>
		<path d="M110.3,108.2L90.7,94c-1.5-1.1-3.5-0.7-4.6,0.7l-44.2,60.9c-1.1,1.5-0.7,3.5,0.7,4.6l19.6,14.2c1.5,1.1,3.5,0.7,4.6-0.7
			l44.2-60.9C112.1,111.4,111.8,109.3,110.3,108.2z M97.2,115c-1.8,2.5-5.2,3-7.7,1.2c-2.5-1.8-3-5.2-1.2-7.7c1.8-2.5,5.2-3,7.7-1.2
			C98.4,109.1,99,112.6,97.2,115z"/>
	</g>
</g>
</svg>
