<?xml version="1.0" encoding="utf-8"?>
<!-- Generator: Adobe Illustrator 24.2.1, SVG Export Plug-In . SVG Version: 6.00 Build 0)  -->
<svg version="1.1" id="レイヤー_1" xmlns="http://www.w3.org/2000/svg" xmlns:xlink="http://www.w3.org/1999/xlink" x="0px"
	 y="0px" viewBox="0 0 312 312" style="enable-background:new 0 0 312 312;" xml:space="preserve" width="312" height="312">
<style type="text/css">
	.st0{fill:#FFFFFF;}
</style>
<g>
	<g>
		
			<ellipse transform="matrix(0.7071 -0.7071 0.7071 0.7071 -64.6172 155.9998)" class="st0" cx="156" cy="156" rx="150.4" ry="150.4"/>
		<path d="M156,311.4C70.3,311.4,0.6,241.7,0.6,156C0.6,70.3,70.3,0.6,156,0.6c85.7,0,155.4,69.7,155.4,155.4
			C311.4,241.7,241.7,311.4,156,311.4z M156,10.6C75.8,10.6,10.6,75.8,10.6,156S75.8,301.4,156,301.4S301.4,236.2,301.4,156
			S236.2,10.6,156,10.6z"/>
	</g>
	<g>
		<path d="M157.2,209.3H81.1V97.7h76.1v44.6l6.9,3.5V89.8c0-6.1-5-11.1-11.1-11.1H85.2c-6.1,0-11.1,5-11.1,11.1v132.4
			c0,6.1,5,11.1,11.1,11.1H153c6.1,0,11.1-5,11.1-11.1v-40.4c-2.3-1.2-4.7-2.3-6.9-3.5L157.2,209.3L157.2,209.3z M119.1,222.8
			c-1.8,0-3.3-1.5-3.3-3.3c0-1.8,1.5-3.3,3.3-3.3s3.3,1.5,3.3,3.3C122.4,221.3,120.9,222.8,119.1,222.8z"/>
		<path d="M256.3,142l-38.6-19.4c-1.9-0.9-3.9-1.4-5.9-1.4c-4.8,0-9.5,2.7-11.8,7.3c-0.6,1.2-1,2.4-1.2,3.6c-0.2,0-0.5,0-0.7,0
			c-4.8,0-9.5,2.7-11.8,7.3c-0.9,1.8-1.4,3.8-1.4,5.7c-1.4,0.5-2.7,1.2-3.7,2.1c-1.8,1.5-3,3.4-4,5.4c-0.5,0.9-0.7,1.9-0.9,2.8
			L151,142.5c-1.9-0.9-3.9-1.4-5.9-1.4c-4.8,0-9.5,2.7-11.8,7.3v0c-0.9,1.9-1.4,3.9-1.4,5.9c0,4.8,2.7,9.5,7.3,11.8l48.3,24.2
			c0.7,0.4,8.8,4.4,9.5,4.8l0,0c0.5,0.2,1,0.6,1.5,0.9l-17.2,4.1c-6.6,1.6-11.1,7.5-11.1,14c0,1.1,0.1,2.2,0.4,3.4
			c1.6,6.6,7.5,11.1,14,11.1c1.1,0,2.2-0.1,3.4-0.4h0l36.6-8.7c7.6-1.7,12.4-3.3,18.8-5.1c5.9-1.7,11.7-3.5,16.9-6.6
			c5.2-3.1,9.8-7.6,13.1-14.1c2.8-5.5,4.1-11.4,4.1-17.2C277.5,162.2,269.7,148.7,256.3,142z M266,189.8c-2.6,5.2-5.8,8.3-10,10.7
			c-4.1,2.5-9.2,4.1-15,5.8c-6.7,1.9-11.1,3.4-18.3,5l-0.1,0l-36.6,8.8h0c-0.5,0.1-1,0.2-1.4,0.2c-2.8,0-5.3-1.9-6-4.7
			c-0.1-0.5-0.2-1-0.2-1.4c0-2.8,1.9-5.3,4.7-6l18.2-4.3c0.3-0.1,0.7-0.2,1-0.4c1.5-0.8,2.7-1.6,3.7-2.8c1-1.2,1.7-2.8,1.7-4.4
			c0-1.4-0.5-2.6-1-3.6c-0.9-1.4-1.9-2.3-2.9-3.1c-1-0.8-2-1.4-3-1.8l0,0c-0.7-0.4-8.8-4.4-9.5-4.8l-48.3-24.2
			c-1.7-0.9-2.7-2.6-2.7-4.4c0-0.7,0.2-1.5,0.5-2.2c0.9-1.7,2.6-2.7,4.4-2.7c0.7,0,1.5,0.2,2.2,0.5l34.8,17.4
			c0.2,0.1,0.5,0.2,0.8,0.3c0,0,0.1,0,0.1,0c0.2,0,0.4,0.1,0.6,0.1c0.1,0,0.1,0,0.2,0c0.2,0,0.4,0,0.6,0c0.2,0,0.4-0.1,0.6-0.1
			c0.1,0,0.1,0,0.2,0c0,0,0,0,0,0c0.5-0.2,1-0.4,1.4-0.8c0,0,0,0,0,0c0.4-0.3,0.7-0.8,1-1.2c0.1-0.2,0.2-0.5,0.3-0.8
			c0-0.1,0-0.1,0-0.2c0-0.2,0.1-0.4,0.1-0.6c0-0.1,0-0.1,0-0.2c0-0.2,0-0.4,0-0.6c0-0.1,0-0.2-0.1-0.3c0-0.1,0-0.3-0.1-0.4
			c0,0,0,0,0,0c-0.2-0.5-0.4-1-0.8-1.4c0,0,0,0,0,0c-0.3-0.4-0.8-0.7-1.2-1c-0.4-0.2-0.7-0.5-0.9-0.9c-0.2-0.4-0.4-1.1-0.4-1.7
			c0-0.6,0.1-1.1,0.2-1.2c0.7-1.3,1.4-2.3,2-2.8c0.6-0.5,0.9-0.6,1.4-0.6c0.2,0,0.4,0,0.7,0.1c1.5,0.4,3.2-0.1,4.2-1.3
			s1.3-2.9,0.6-4.4c-0.3-0.7-0.4-1.4-0.4-2c0-0.7,0.2-1.4,0.5-2.1c0.9-1.7,2.6-2.7,4.4-2.7c0.7,0,1.5,0.2,2.2,0.5l1.3,0.6
			c1.5,0.8,3.4,0.5,4.7-0.7c1.3-1.2,1.7-3,1-4.6c-0.2-0.6-0.4-1.3-0.4-1.9c0-0.7,0.2-1.4,0.5-2.1c0.9-1.7,2.6-2.7,4.4-2.7
			c0.7,0,1.5,0.2,2.2,0.5l38.6,19.4c10.5,5.3,16.6,15.9,16.6,26.9C269.2,180.8,268.2,185.4,266,189.8z"/>
	</g>
</g>
</svg>
